nColumns=19
nRows=75
DataType=double
version=3
OpenSimVersion=4.1
endheader
time	ground_force_calcn_r_vx	ground_force_calcn_r_vy	ground_force_calcn_r_vz	ground_force_calcn_r_px	ground_force_calcn_r_py	ground_force_calcn_r_pz	ground_force_calcn_r_mx	ground_force_calcn_r_my	ground_force_calcn_r_mz	ground_force_calcn_l_vx	ground_force_calcn_l_vy	ground_force_calcn_l_vz	ground_force_calcn_l_px	ground_force_calcn_l_py	ground_force_calcn_l_pz	ground_force_calcn_l_mx	ground_force_calcn_l_my	ground_force_calcn_l_mz
3.2	3.81257	453.922	-22.5825	-0.257423	0	-0.407976	-0.00496436	-0.591053	0.0294047	-2.38649	198.802	36.4521	-0.232446	0	-0.792236	-0.0112317	0.935639	0.171557
3.21	3.43016	456.233	-22.838	-0.256599	0	-0.40765	-0.00401995	-0.53468	0.0267648	-2.38518	196.49	35.5318	-0.23222	0	-0.791967	-0.0112658	0.92807	0.167825
3.22	3.111	458.92	-23.1903	-0.255749	0	-0.407295	-0.00325937	-0.480808	0.0242963	-2.33751	193.603	34.4915	-0.231909	0	-0.791677	-0.0111352	0.922263	0.164306
3.23	2.879	461.884	-23.624	-0.254912	0	-0.406922	-0.00267954	-0.429885	0.0219873	-2.24058	190.218	33.3603	-0.231512	0	-0.791371	-0.010813	0.917989	0.160996
3.24	2.75242	465.015	-24.1204	-0.254122	0	-0.406542	-0.00226302	-0.382333	0.0198317	-2.09562	186.427	32.168	-0.231024	0	-0.791052	-0.0102831	0.914789	0.157847
3.25	2.74311	468.193	-24.6578	-0.25341	0	-0.406166	-0.00198295	-0.33845	0.0178248	-1.90825	182.333	30.9439	-0.230448	0	-0.790728	-0.00954499	0.912018	0.15478
3.26	2.85638	471.3	-25.2124	-0.252798	0	-0.405807	-0.00180835	-0.298376	0.0159617	-1.68767	178.041	29.7151	-0.229788	0	-0.7904	-0.00861686	0.909038	0.151719
3.27	3.09077	474.218	-25.7598	-0.252303	0	-0.405472	-0.00170862	-0.262154	0.0142403	-1.44583	173.654	28.5044	-0.229051	0	-0.790073	-0.00753684	0.905225	0.148588
3.28	3.43765	476.837	-26.2772	-0.251937	0	-0.40517	-0.00165643	-0.229763	0.0126616	-1.19658	169.265	27.3295	-0.228247	0	-0.78975	-0.00636222	0.899983	0.145311
3.29	3.88122	479.055	-26.7451	-0.251701	0	-0.404907	-0.00162956	-0.201135	0.0112291	-0.954393	164.951	26.2021	-0.227392	0	-0.78943	-0.00516604	0.892868	0.141829
3.3	4.39933	480.783	-27.1488	-0.251597	0	-0.404689	-0.00160955	-0.1759	0.0099327	-0.733208	160.772	25.1272	-0.226502	0	-0.789108	-0.00402972	0.883605	0.138099
3.31	4.9655	481.944	-27.4792	-0.251615	0	-0.404515	-0.00157957	-0.15331	0.00874137	-0.545374	156.767	24.1046	-0.225587	0	-0.788778	-0.00303387	0.872082	0.134092
3.32	5.55268	482.475	-27.7335	-0.251746	0	-0.404389	-0.00152419	-0.132438	0.00761275	-0.401173	152.958	23.1308	-0.224663	0	-0.788432	-0.00225105	0.858277	0.129791
3.33	6.1361	482.328	-27.9137	-0.251973	0	-0.404309	-0.00142977	-0.112387	0.00650418	-0.308524	149.353	22.2006	-0.223735	0	-0.788066	-0.00173975	0.842194	0.125188
3.34	6.69323	481.458	-28.0252	-0.252278	0	-0.404269	-0.0012857	-0.0924828	0.00538334	-0.272517	145.948	21.3089	-0.222808	0	-0.787675	-0.00153843	0.823919	0.120295
3.35	7.20345	479.813	-28.0725	-0.252641	0	-0.40427	-0.0010879	-0.0724636	0.00423965	-0.294765	142.738	20.453	-0.221881	0	-0.787256	-0.00165951	0.803606	0.11515
3.36	7.64869	477.337	-28.0558	-0.253043	0	-0.404305	-0.000840847	-0.0524752	0.00308427	-0.372462	139.717	19.6344	-0.220953	0	-0.786815	-0.00208317	0.781436	0.109815
3.37	8.01467	473.981	-27.9691	-0.253462	0	-0.404371	-0.000558472	-0.0330276	0.00194892	-0.498274	136.886	18.8597	-0.220024	0	-0.786357	-0.00275749	0.75754	0.104371
3.38	8.2914	469.716	-27.8021	-0.25388	0	-0.404464	-0.000264863	-0.0150048	0.00088812	-0.661517	134.248	18.1413	-0.219097	0	-0.78589	-0.00360742	0.732086	0.0989292
3.39	8.47218	464.541	-27.5432	-0.25428	0	-0.404581	5.68654e-06	0.0003118	-1.8487e-05	-0.849803	131.807	17.4959	-0.218182	0	-0.785426	-0.00454687	0.705235	0.0936117
3.4	8.55262	458.483	-27.185	-0.254648	0	-0.40472	0.000212619	0.011398	-0.000675823	-1.05132	129.574	16.9423	-0.217286	0	-0.784979	-0.00549483	0.677235	0.0885508
3.41	8.52878	451.602	-26.7277	-0.254968	0	-0.404872	0.00031715	0.0167932	-0.000993892	-1.25752	127.56	16.4999	-0.216416	0	-0.784559	-0.00639089	0.64828	0.0838551
3.42	8.39607	443.987	-26.1807	-0.255226	0	-0.405035	0.000289301	0.0152983	-0.000902099	-1.46361	125.778	16.1869	-0.215578	0	-0.784183	-0.00719622	0.618421	0.0795867
3.43	8.14989	435.77	-25.5618	-0.25541	0	-0.405199	0.000113541	0.00607099	-0.000356118	-1.66688	124.24	16.0172	-0.214771	0	-0.783864	-0.00788484	0.587692	0.0757665
3.44	7.78634	427.125	-24.8951	-0.255508	0	-0.405358	-0.000206047	-0.0113028	0.000658789	-1.86422	122.948	15.9993	-0.213991	0	-0.783611	-0.00843544	0.556329	0.0723954
3.45	7.305	418.273	-24.2051	-0.25551	0	-0.405505	-0.000641544	-0.0367338	0.00212576	-2.05053	121.897	16.1341	-0.213231	0	-0.783434	-0.00883062	0.524949	0.0694816
3.46	6.7154	409.469	-23.5134	-0.255409	0	-0.405636	-0.00114044	-0.069538	0.00399316	-2.21945	121.064	16.4149	-0.212484	0	-0.783333	-0.00906884	0.494677	0.0670727
3.47	6.04195	400.987	-22.8376	-0.255205	0	-0.405751	-0.00163578	-0.108562	0.00618299	-2.36714	120.415	16.8276	-0.211737	0	-0.78331	-0.00917861	0.46691	0.0652491
3.48	5.31921	393.099	-22.1932	-0.254899	0	-0.405851	-0.00206174	-0.152366	0.00860214	-2.49652	119.905	17.3524	-0.210968	0	-0.783361	-0.00922334	0.442985	0.0641083
3.49	4.5819	386.057	-21.5943	-0.254503	0	-0.405934	-0.00236604	-0.199355	0.0111511	-2.61839	119.49	17.9683	-0.210149	0	-0.783485	-0.00928807	0.423862	0.0637381
3.5	3.85831	380.072	-21.0546	-0.254026	0	-0.406002	-0.00251733	-0.247976	0.013737	-2.74916	119.14	18.6553	-0.209257	0	-0.783674	-0.00946118	0.410019	0.0642018
3.51	3.16952	375.312	-20.5862	-0.253486	0	-0.40606	-0.00250736	-0.296904	0.0162854	-2.90542	118.842	19.3963	-0.208273	0	-0.783924	-0.00981801	0.401591	0.0655443
3.52	2.53496	371.887	-20.2	-0.252901	0	-0.406108	-0.00235246	-0.345115	0.0187458	-3.09796	118.599	20.1766	-0.207186	0	-0.784226	-0.0104102	0.398534	0.0678002
3.53	1.97258	369.864	-19.9077	-0.252295	0	-0.406152	-0.00209004	-0.391887	0.0210931	-3.32971	118.429	20.9826	-0.205998	0	-0.784566	-0.0112653	0.400677	0.0709897
3.54	1.49213	369.281	-19.7203	-0.251688	0	-0.406192	-0.00176494	-0.436797	0.0233258	-3.59763	118.357	21.8024	-0.204719	0	-0.784935	-0.0123955	0.407796	0.0751194
3.55	1.09156	370.153	-19.6467	-0.251099	0	-0.406233	-0.00141447	-0.479655	0.0254587	-3.89573	118.41	22.6251	-0.203366	0	-0.785316	-0.0138067	0.419651	0.0801849
3.56	0.76339	372.468	-19.6915	-0.250543	0	-0.406282	-0.00106653	-0.520375	0.027511	-4.21933	118.61	23.4416	-0.201957	0	-0.785701	-0.0155072	0.435925	0.086154
3.57	0.505942	376.172	-19.8528	-0.250033	0	-0.406341	-0.000751533	-0.558771	0.0294897	-4.56832	118.982	24.2454	-0.200511	0	-0.786076	-0.0175139	0.456151	0.0929514
3.58	0.328951	381.164	-20.1232	-0.249578	0	-0.406415	-0.000513001	-0.594428	0.0313822	-4.9456	119.546	25.0338	-0.199042	0	-0.786433	-0.0198415	0.479612	0.100434
3.59	0.251275	387.294	-20.4911	-0.24918	0	-0.406505	-0.00040662	-0.62673	0.0331593	-5.35271	120.323	25.8068	-0.19757	0	-0.786766	-0.0224866	0.505476	0.108414
3.6	0.294973	394.364	-20.9442	-0.248839	0	-0.406611	-0.000489942	-0.655029	0.0347877	-5.78527	121.333	26.5647	-0.196115	0	-0.787066	-0.0254128	0.532975	0.11669
3.61	0.481449	402.146	-21.4687	-0.248545	0	-0.406728	-0.000812609	-0.678758	0.0362358	-6.23232	122.585	27.3049	-0.194701	0	-0.787327	-0.0285478	0.561515	0.125073
3.62	0.829338	410.397	-22.0519	-0.248288	0	-0.406853	-0.00140949	-0.697483	0.0374778	-6.67939	124.079	28.0216	-0.193353	0	-0.787543	-0.0317986	0.590706	0.133403
3.63	1.35085	418.893	-22.6814	-0.248052	0	-0.406979	-0.00229278	-0.710983	0.0384969	-7.11204	125.8	28.7055	-0.192086	0	-0.78771	-0.0350726	0.620377	0.14156
3.64	2.04794	427.435	-23.3426	-0.247824	0	-0.407104	-0.00344684	-0.719407	0.0392874	-7.51784	127.711	29.3431	-0.190905	0	-0.787824	-0.0382893	0.650448	0.149448
3.65	2.90909	435.88	-24.0179	-0.247587	0	-0.407226	-0.00482759	-0.723336	0.0398572	-7.88597	129.748	29.9147	-0.189799	0	-0.787883	-0.0413956	0.681082	0.15703
3.66	3.906	444.142	-24.6882	-0.247329	0	-0.407344	-0.00636529	-0.723781	0.0402324	-8.20781	131.824	30.3951	-0.188746	0	-0.787887	-0.0443782	0.71275	0.164341
3.67	4.99285	452.18	-25.3359	-0.247036	0	-0.407455	-0.00797303	-0.72208	0.0404585	-8.47863	133.84	30.7599	-0.187717	0	-0.787834	-0.0472536	0.745925	0.171433
3.68	6.11118	459.984	-25.9458	-0.246694	0	-0.407558	-0.00956119	-0.719664	0.0405932	-8.69785	135.7	30.9929	-0.186675	0	-0.787731	-0.0500357	0.780636	0.178291
3.69	7.19938	467.55	-26.5049	-0.246292	0	-0.40765	-0.0110529	-0.717811	0.040692	-8.86865	137.326	31.0926	-0.185591	0	-0.787585	-0.0527206	0.816347	0.184833
3.7	8.20141	474.849	-27.0027	-0.24582	0	-0.407724	-0.012392	-0.717477	0.0407999	-8.99714	138.66	31.0725	-0.184443	0	-0.787407	-0.0552841	0.852017	0.190929
3.71	9.07196	481.829	-27.433	-0.24527	0	-0.407778	-0.0135415	-0.719214	0.0409484	-9.09136	139.676	30.9588	-0.183214	0	-0.78721	-0.0576867	0.886275	0.19644
3.72	9.77614	488.415	-27.7966	-0.244636	0	-0.407806	-0.0144762	-0.723232	0.0411605	-9.15869	140.367	30.784	-0.181901	0	-0.787003	-0.0598781	0.9177	0.201261
3.73	10.2862	494.537	-28.1024	-0.243915	0	-0.407803	-0.0151751	-0.729586	0.0414593	-9.20279	140.751	30.5808	-0.180511	0	-0.786798	-0.0617952	0.945117	0.205345
3.74	10.5802	500.14	-28.3643	-0.243104	0	-0.407762	-0.0156173	-0.738247	0.041868	-9.22213	140.856	30.377	-0.179057	0	-0.786597	-0.063359	0.967725	0.2087
3.75	10.6447	505.194	-28.5991	-0.242204	0	-0.40768	-0.0157827	-0.749042	0.0424034	-9.21062	140.722	30.1925	-0.17756	0	-0.786408	-0.0644771	0.985094	0.211357
3.76	10.476	509.695	-28.8254	-0.241219	0	-0.407551	-0.0156529	-0.761572	0.0430701	-9.15955	140.39	30.0398	-0.176047	0	-0.78623	-0.0650667	0.99729	0.213394
3.77	10.0805	513.668	-29.062	-0.240153	0	-0.407379	-0.0152135	-0.775229	0.0438604	-9.06023	139.903	29.9253	-0.174545	0	-0.786064	-0.0650663	1.00472	0.21491
3.78	9.47632	517.175	-29.324	-0.239019	0	-0.407163	-0.014462	-0.789271	0.0447518	-8.90549	139.301	29.8523	-0.173078	0	-0.785908	-0.0644367	1.00793	0.216
3.79	8.6941	520.306	-29.619	-0.237831	0	-0.406909	-0.0134157	-0.802871	0.0457044	-8.691	138.62	29.8221	-0.171673	0	-0.785761	-0.0631609	1.00741	0.216729
3.8	7.77772	523.155	-29.9462	-0.236608	0	-0.406627	-0.0121222	-0.815376	0.0466734	-8.41611	137.899	29.8353	-0.170352	0	-0.785623	-0.0612611	1.00377	0.217172
3.81	6.78168	525.805	-30.2977	-0.23537	0	-0.406323	-0.0106582	-0.826363	0.0476163	-8.08372	137.172	29.891	-0.169132	0	-0.785498	-0.0587994	0.997763	0.217421
3.82	5.76372	528.321	-30.6615	-0.234135	0	-0.406008	-0.00911647	-0.835645	0.0484972	-7.7003	136.472	29.9863	-0.168031	0	-0.785387	-0.0558705	0.990186	0.217569
3.83	4.77335	530.755	-31.0226	-0.232922	0	-0.405693	-0.00758506	-0.843392	0.0492962	-7.27555	135.831	30.1163	-0.167058	0	-0.785291	-0.0525955	0.981931	0.217713
3.84	3.84498	533.156	-31.3659	-0.231743	0	-0.405385	-0.00613139	-0.850194	0.0500174	-6.82104	135.281	30.2734	-0.166222	0	-0.785212	-0.049108	0.973953	0.217953
3.85	2.99702	535.58	-31.6796	-0.230606	0	-0.405088	-0.00479603	-0.857071	0.0506959	-6.34819	134.851	30.4462	-0.165522	0	-0.785148	-0.0455399	0.967374	0.218411
3.86	2.23258	538.104	-31.9567	-0.229518	0	-0.404808	-0.00359149	-0.865632	0.0514077	-5.86725	134.564	30.6201	-0.164959	0	-0.785095	-0.0420099	0.963485	0.219242
3.87	1.54188	540.825	-32.1932	-0.228483	0	-0.404546	-0.00250359	-0.878152	0.052273	-5.38711	134.438	30.779	-0.164531	0	-0.785045	-0.038612	0.963583	0.220608
3.88	0.906604	543.842	-32.3882	-0.2275	0	-0.404302	-0.00149594	-0.897368	0.0534423	-4.91557	134.486	30.9068	-0.164231	0	-0.784996	-0.0354085	0.968743	0.222632
3.89	0.307033	547.229	-32.5436	-0.22657	0	-0.404075	-0.000519521	-0.92595	0.055066	-4.45831	134.708	30.9897	-0.164052	0	-0.784946	-0.0324217	0.979624	0.225363
3.9	-0.273352	551.011	-32.6642	-0.225689	0	-0.403859	0.000479236	-0.966024	0.0572664	-4.0179	135.098	31.0164	-0.163978	0	-0.784893	-0.029636	0.996479	0.228776
3.91	-0.847277	555.164	-32.7557	-0.224849	0	-0.40365	0.00155526	-1.01906	0.0601262	-3.59508	135.635	30.9793	-0.163994	0	-0.78484	-0.027015	1.01922	0.232792
3.92	-1.42486	559.625	-32.8209	-0.224044	0	-0.403442	0.00276522	-1.08606	0.0636953	-3.19	136.29	30.8757	-0.164079	0	-0.784787	-0.0245136	1.04732	0.237265
3.93	-2.01711	564.298	-32.8578	-0.223258	0	-0.403228	0.00417406	-1.16771	0.0679934	-2.80238	137.024	30.7073	-0.164215	0	-0.784739	-0.0220829	1.07976	0.241975
3.94	-2.63565	569.07	-32.8609	-0.222481	0	-0.403002	0.00585579	-1.26434	0.0730091	-2.43123	137.794	30.4794	-0.164381	0	-0.784695	-0.0196757	1.11515	0.246666
